<mxfile host="app.diagrams.net" modified="2024-06-25T03:17:00.685Z" agent="Mozilla/5.0 (Windows NT 10.0; Win64; x64) AppleWebKit/537.36 (KHTML, like Gecko) Chrome/123.0.0.0 Safari/537.36 Edg/123.0.0.0" version="24.5.4" etag="zXpUzLzejrINo-7_2iWB" type="github">
  <diagram name="第 1 页" id="cbxD8dfUlcqytlRC2Bn9">
    <mxGraphModel>
      <root>
        <mxCell id="0" />
        <mxCell id="1" parent="0" />
      </root>
    </mxGraphModel>
  </diagram>
</mxfile>
